<?xml version="1.0" standalone="no"?>
<!DOCTYPE svg PUBLIC "-//W3C//DTD SVG 20010904//EN"
 "http://www.w3.org/TR/2001/REC-SVG-20010904/DTD/svg10.dtd">
<svg version="1.0" xmlns="http://www.w3.org/2000/svg"
 width="300.000000pt" height="300.000000pt" viewBox="0 0 300.000000 300.000000"
 preserveAspectRatio="xMidYMid meet">
<metadata>
Created by potrace 1.11, written by Peter Selinger 2001-2013
</metadata>
<g transform="translate(0.000000,300.000000) scale(0.100000,-0.100000)"
fill="#000000" stroke="none">
<path d="M0 1500 l0 -1500 1500 0 1500 0 0 1500 0 1500 -1500 0 -1500 0 0
-1500z m1035 1000 c89 -14 160 -67 202 -148 18 -35 33 -77 33 -92 l0 -29 403
-3 c453 -3 441 -1 523 -84 37 -37 54 -70 80 -159 l9 -30 116 -5 c102 -4 120
-8 151 -30 100 -68 113 -161 48 -337 -23 -59 -81 -216 -129 -348 -149 -403
-162 -427 -263 -495 -109 -73 -75 -70 -950 -70 l-784 0 -52 26 c-64 32 -121
95 -145 160 -16 45 -17 106 -17 729 0 653 1 682 20 735 33 90 117 160 213 180
60 11 471 12 542 0z"/>
<path d="M916 1758 c-60 -16 -116 -80 -144 -163 -13 -39 -41 -115 -62 -170
-90 -233 -200 -535 -200 -550 0 -13 81 -15 762 -15 754 0 762 0 805 21 24 12
54 35 67 53 13 17 51 108 86 201 34 94 73 197 85 230 122 320 145 389 133 397
-20 12 -1485 8 -1532 -4z m854 -291 c31 -10 35 -17 38 -49 l3 -37 36 39 c20
23 50 44 71 50 52 14 127 12 165 -4 118 -49 151 -235 58 -327 -79 -80 -217
-78 -293 3 l-38 39 0 -35 c0 -34 -2 -36 -52 -51 -66 -19 -124 -19 -179 0 -55
20 -87 49 -111 103 l-19 42 -69 0 -70 0 0 -40 0 -40 80 0 80 0 0 -40 0 -40
-265 0 -265 0 0 196 0 195 53 -3 52 -3 3 -152 3 -153 74 0 75 0 0 155 0 155
135 0 135 0 0 -40 0 -40 -80 0 -80 0 0 -35 0 -35 70 0 69 0 19 43 c23 50 68
95 108 107 42 12 154 11 194 -3z"/>
<path d="M1620 1398 c-53 -28 -75 -118 -44 -183 16 -34 65 -65 103 -65 18 0
21 6 21 40 0 38 -2 40 -30 40 -28 0 -30 3 -30 35 l0 35 79 0 c79 0 80 0 83 28
6 55 -118 103 -182 70z"/>
<path d="M1942 1388 c-48 -52 -45 -178 5 -218 34 -26 66 -25 97 3 53 46 56
167 5 218 -27 27 -80 25 -107 -3z"/>
</g>
</svg>
